<?xml version="1.0" encoding="UTF-8"?>
<!DOCTYPE svg PUBLIC "-//W3C//DTD SVG 1.1//EN" "http://www.w3.org/Graphics/SVG/1.1/DTD/svg11.dtd">
<!-- Creator: CorelDRAW 2020 (64-Bit) -->
<svg xmlns="http://www.w3.org/2000/svg" xml:space="preserve" width="1772px" height="1772px" version="1.1" shape-rendering="geometricPrecision" text-rendering="geometricPrecision" image-rendering="optimizeQuality" fill-rule="evenodd" clip-rule="evenodd"
viewBox="0 0 1772 1772"
 xmlns:xlink="http://www.w3.org/1999/xlink"
 xmlns:xodm="http://www.corel.com/coreldraw/odm/2003">
 <g id="Capa_x0020_1">
  <metadata id="CorelCorpID_0Corel-Layer"/>
  <g id="_2097854946368">
   <path fill="#DA8D8A" d="M574.71 363.07c-32.44,48.43 -48.87,73.26 -62.17,140.3 -7.97,40.17 -16.51,152.21 -1.91,182.63 6.92,14.42 39.16,118.11 46.14,128.15 3.74,-16.08 21.2,-53.79 29.63,-67.76 30.05,-49.8 74.03,-93.69 129.54,-113.94l38.18 -10.52c8.96,-38.47 43.57,-66.1 43.57,-181.97 0,-64.4 -30.64,-120.9 -76.8,-138.5 -31.36,-11.95 -64.65,-2.6 -87.13,10.45 -24.53,14.22 -41.03,30.42 -59.05,51.16z"/>
   <path fill="#3B9C80" d="M395.3 665.5l2.56 2.56 25.63 38.45c9.49,6.35 15.46,14.39 22.68,23.45l69.59 68.82 -6.39 -101.63c-0.32,-3.16 -1.91,-6.15 1.26,-11.15 -14.6,-30.42 -6.06,-142.46 1.91,-182.63 13.3,-67.04 29.73,-91.87 62.17,-140.3 -7.17,-26.86 -63.15,-81.14 -105.19,-84.55l-0.54 -0.03 -14.16 0c-48.37,3.74 -79.82,45.7 -94.35,80.51 -38.06,91.27 -16.31,184.43 19.8,272.83 4.23,10.35 12.51,22.87 15.03,33.67z"/>
   <path fill="#65AFAD" d="M797.69 439.96c0,115.87 -34.61,143.5 -43.57,181.97 108.98,0 101.06,81.54 55.78,130.1 -6.48,6.95 -12.24,10.94 -17.34,18.55 18.94,-4.41 79.65,-47.17 98.02,-63.45l25.06 -23.64c4.4,-5.54 5.56,-6.74 10.87,-12.19 7.18,-7.39 15.45,-18.32 21.39,-27.31 26.52,-40.12 52.49,-93.66 40.12,-145.76 -6.19,-26.09 -19.01,-43.2 -37.56,-57.27 -29.97,-22.73 -76.1,-22.84 -115.91,-12.84l-36.86 11.84z"/>
   <path fill="#C05F72" d="M556.77 814.15l0 5.13c45.37,0 77.46,1.91 121.02,-2.38 10.62,-1.05 10.44,-0.4 14.81,2.38 15.77,-3.67 26.09,-7.44 40.14,-13.69 6.56,-2.91 11.71,-4.49 17.74,-7.89 7.96,-4.5 9.08,-6.86 19.02,-9.18 3.15,-4.71 5.58,-6.54 10.68,-9.82 2.7,-1.73 3.82,-2.19 6.39,-3.86 4.98,-3.23 2.09,-0.87 5.99,-4.26 5.1,-7.61 10.86,-11.6 17.34,-18.55 45.28,-48.56 53.2,-130.1 -55.78,-130.1l-38.18 10.52c-55.51,20.25 -99.49,64.14 -129.54,113.94 -8.43,13.97 -25.89,51.68 -29.63,67.76z"/>
   <path fill="#E2C9B0" d="M423.49 706.51c3.59,15.41 16.73,33.55 23.96,47.8 8.76,17.26 16.28,31.04 24.74,47.03 3.85,7.27 8.2,14.27 10.25,23.07 8.81,6.45 13.88,23.19 19.63,34.19 8.41,16.1 11.46,18.44 8.19,47.45 -3.69,32.62 -5.63,67.86 -7.32,102.89l-4.16 49.67c-3.68,18.43 -6.53,11.67 -38.32,18.06 -25.48,5.13 -65.13,13.89 -67.73,45.04l0.01 0c55.75,-29.5 74.15,-20.5 148.65,-20.5 34.16,0 90.79,-4.21 121.53,6.62 12.07,4.25 20.98,11.56 29.67,13.88l0.01 0c-6.15,-11.63 -6.77,-17.63 -17.44,-26.12 -17.04,-13.55 -49.24,-18.67 -70.51,-21.76 -30.22,-4.39 -18.48,-14.4 -24.44,-67.83 -3.04,-27.25 -1.82,-44.77 -2.93,-66.27 -0.57,-11.13 -2.01,-9.36 -2.58,-20.48l-2.56 -43.59c8.8,-2.05 15.8,-6.4 23.07,-10.25l97.39 -46.13c-4.37,-2.78 -4.19,-3.43 -14.81,-2.38 -43.56,4.29 -75.65,2.38 -121.02,2.38l0 -5.13c-6.98,-10.04 -39.22,-113.73 -46.14,-128.15 -3.17,5 -1.58,7.99 -1.26,11.15l6.39 101.63 -69.59 -68.82c-7.22,-9.06 -13.19,-17.1 -22.68,-23.45z"/>
   <path fill="#8C4E80" d="M259.46 744.95c-33.04,7.7 -76.77,32.48 -79.46,68.24l0 7.47c4.98,78.86 157.79,101.39 258.4,36.59l44.04 -32.84c-2.05,-8.8 -6.4,-15.8 -10.25,-23.07 -7.16,-1.91 -28.53,-18.55 -44.36,-27.41 -18.14,-10.14 -27.9,-14.17 -48.23,-20.97 -57.96,-19.41 -75.96,-11.68 -120.14,-8.01z"/>
   <path fill="#3A84B0" d="M259.46 744.95c44.18,-3.67 62.18,-11.4 120.14,8.01 20.33,6.8 30.09,10.83 48.23,20.97 15.83,8.86 37.2,25.5 44.36,27.41 -8.46,-15.99 -15.98,-29.77 -24.74,-47.03 -7.23,-14.25 -20.37,-32.39 -23.96,-47.8l-25.63 -38.45 -2.56 -2.56c-16.25,-10.88 -34.58,-23.99 -54.34,-30.24 -24.57,-7.77 -62.41,-11.96 -83.78,4.9 -0.42,0.33 -0.98,0.83 -1.38,1.18l-3.73 3.96c-10.09,10.9 -15.97,18.5 -15.94,38.12 0.05,32.69 20.46,50.82 23.33,61.53z"/>
   <path fill="#B182A6" d="M692.6 819.28l-97.39 46.13c21.5,29.35 116.99,64.32 176.59,45.88 98.98,-30.63 43.26,-112.15 -2.3,-122.77 -9.94,2.32 -11.06,4.68 -19.02,9.18 -6.03,3.4 -11.18,4.98 -17.74,7.89 -14.05,6.25 -24.37,10.02 -40.14,13.69z"/>
   <path fill="#3B9C80" fill-rule="nonzero" d="M843.43 1113.59c-5.48,2.86 -11.19,4.92 -17.14,6.19 -5.95,1.27 -12.03,1.91 -18.21,1.91 -6.6,0 -12.66,-1.03 -18.22,-3.1 -5.56,-2.06 -10.36,-5.02 -14.4,-8.86 -4.05,-3.86 -7.21,-8.52 -9.47,-13.99 -2.26,-5.48 -3.39,-11.59 -3.39,-18.34 0,-6.74 1.13,-12.85 3.39,-18.33 2.26,-5.47 5.42,-10.14 9.47,-13.98 4.04,-3.86 8.84,-6.81 14.4,-8.88 5.56,-2.06 11.62,-3.09 18.22,-3.09 6.74,0 12.95,0.82 18.62,2.44 5.68,1.63 10.66,4.42 14.94,8.4l-13.09 14.28c-2.54,-2.62 -5.4,-4.6 -8.57,-5.95 -3.18,-1.36 -7.15,-2.03 -11.9,-2.03 -3.97,0 -7.57,0.67 -10.78,2.03 -3.21,1.35 -5.98,3.23 -8.27,5.65 -2.31,2.43 -4.07,5.3 -5.3,8.63 -1.23,3.33 -1.85,6.95 -1.85,10.83 0,3.97 0.62,7.61 1.85,10.9 1.23,3.29 2.99,6.15 5.3,8.57 2.29,2.42 5.06,4.3 8.27,5.65 3.21,1.35 6.81,2.03 10.78,2.03 4.04,0 7.53,-0.46 10.47,-1.37 2.94,-0.92 5.27,-1.85 7.02,-2.8l0 -13.69 -15.11 0 0 -17.14 32.97 0 0 44.04 0 0z"/>
   <polygon fill="#3B9C80" fill-rule="nonzero" points="893.78,1035.27 951.04,1035.27 951.04,1052.41 912.35,1052.41 912.35,1068.12 948.9,1068.12 948.9,1085.26 912.35,1085.26 912.35,1102.4 953.18,1102.4 953.18,1119.54 893.78,1119.54 "/>
   <polygon fill="#3B9C80" fill-rule="nonzero" points="1001.39,1035.27 1026.64,1035.27 1062.46,1093.84 1062.7,1093.84 1062.7,1035.27 1081.28,1035.27 1081.28,1119.54 1056.99,1119.54 1020.2,1059.54 1019.96,1059.54 1019.96,1119.54 1001.39,1119.54 "/>
   <polygon fill="#3B9C80" fill-rule="nonzero" points="1132.46,1035.27 1189.72,1035.27 1189.72,1052.41 1151.03,1052.41 1151.03,1068.12 1187.57,1068.12 1187.57,1085.26 1151.03,1085.26 1151.03,1102.4 1191.86,1102.4 1191.86,1119.54 1132.46,1119.54 "/>
   <path fill="#3B9C80" fill-rule="nonzero" d="M1258.64 1070.15l10.95 0c1.67,0 3.43,-0.07 5.3,-0.19 1.86,-0.11 3.55,-0.47 5.06,-1.07 1.5,-0.59 2.76,-1.52 3.75,-2.79 0.99,-1.27 1.49,-3.06 1.49,-5.36 0,-2.14 -0.44,-3.85 -1.31,-5.12 -0.88,-1.27 -1.98,-2.24 -3.33,-2.91 -1.35,-0.68 -2.9,-1.14 -4.64,-1.38 -1.75,-0.24 -3.46,-0.35 -5.12,-0.35l-12.15 0 0 19.17 0 0zm-18.57 -34.88l32.61 0c4.29,0 8.36,0.41 12.21,1.25 3.85,0.83 7.22,2.22 10.12,4.16 2.89,1.94 5.19,4.56 6.9,7.86 1.71,3.29 2.56,7.4 2.56,12.32 0,5.95 -1.55,11.01 -4.64,15.18 -3.1,4.16 -7.62,6.81 -13.57,7.91l21.43 35.59 -22.26 0 -17.62 -33.69 -9.17 0 0 33.69 -18.57 0 0 -84.27z"/>
   <path fill="#3B9C80" fill-rule="nonzero" d="M1385.42 1059.79l-10.24 26.18 20.59 0 -10.35 -26.18zm-7.14 -24.52l15.35 0 36.67 84.27 -20.95 0 -7.26 -17.85 -32.74 0 -7.03 17.85 -20.47 0 36.43 -84.27 0 0z"/>
   <polygon fill="#3B9C80" fill-rule="nonzero" points="1472.79,1035.27 1491.36,1035.27 1491.36,1102.4 1525.77,1102.4 1525.77,1119.54 1472.79,1119.54 "/>
   <path fill="#3B9C80" fill-rule="nonzero" d="M775.06 1167.61l62.98 0c12.31,0 22.27,9.97 22.27,22.28l0 274.41c0,12.3 -9.96,22.27 -22.27,22.27l-85.25 0 0 -296.69c0,-12.3 9.97,-22.27 22.27,-22.27l0 0z"/>
   <path fill="#3B9C80" fill-rule="nonzero" d="M986.08 1472.67c-27.05,-14.12 -48.23,-33.87 -63.56,-59.24 -15.35,-25.36 -23.01,-54.13 -23.01,-86.34 0,-32.2 7.66,-60.98 23.01,-86.35 15.33,-25.35 36.51,-45.11 63.56,-59.24 27.03,-14.12 57.42,-21.18 91.13,-21.18 30.99,0 58.62,5.46 82.93,16.4 24.3,10.94 44.35,26.74 60.15,47.39l-43.11 38.47c-12.88,11.51 -31.9,11.76 -45.7,1.38 -14.71,-11.08 -30.98,-16.62 -48.81,-16.62 -22.47,0 -40.55,7.23 -54.22,21.65 -13.67,14.43 -20.5,33.8 -20.5,58.1 0,24.31 6.83,43.67 20.5,58.1 13.67,14.42 31.75,21.63 54.22,21.63 17.83,0 34.1,-5.52 48.81,-16.6 13.8,-10.37 32.82,-10.12 45.71,1.37l43.1 38.48c-15.8,20.66 -35.85,36.45 -60.15,47.39 -24.31,10.93 -51.94,16.4 -82.93,16.4 -33.71,0 -64.1,-7.06 -91.13,-21.19l0 0z"/>
   <path fill="#3B9C80" fill-rule="nonzero" d="M1319.16 1472.45c-27.34,-14.27 -48.76,-34.1 -64.25,-59.47 -15.49,-25.36 -23.23,-54 -23.23,-85.89 0,-31.89 7.74,-60.53 23.23,-85.9 15.49,-25.35 36.91,-45.18 64.25,-59.46 27.35,-14.27 58.17,-21.41 92.51,-21.41 34.31,0 65.15,7.14 92.49,21.41 27.34,14.28 48.75,34.11 64.25,59.46 15.49,25.37 23.24,54.01 23.24,85.9 0,31.89 -7.75,60.53 -23.24,85.89 -15.5,25.37 -36.91,45.2 -64.25,59.47 -27.34,14.27 -58.18,21.41 -92.49,21.41 -34.34,0 -65.16,-7.14 -92.51,-21.41z"/>
   <path fill="#3B9C80" fill-rule="nonzero" d="M430.49 1419.48l0 -218.64c0,-11.87 9.65,-21.53 21.52,-21.53l120.33 0c6.64,0 13.08,0.28 19.32,0.81 -35.62,114.31 -105.22,192.17 -161.17,239.36l0 0zm269.43 -195.37c-11.84,-18.23 -28.7,-32.2 -50.58,-41.92 -21.86,-9.72 -47.53,-14.58 -77,-14.58l-120.33 0c-18.35,0 -33.23,14.88 -33.23,33.23l0 285.73 73.8 0c18.63,0 33.73,-15.11 33.73,-33.74l0 -44.63 46.03 0c29.47,0 55.14,-4.86 77,-14.59 21.88,-9.71 38.74,-23.69 50.58,-41.92 11.86,-18.22 17.78,-39.48 17.78,-63.79 0,-24.3 -5.92,-45.56 -17.78,-63.79z"/>
   <path fill="#DA8D8A" d="M527.78 1312.08c13.32,-19.66 25.26,-40.16 35.84,-61.52 10.66,-21.75 20.18,-45.21 28.04,-70.45 -6.24,-0.52 -12.68,-0.79 -19.32,-0.79l-120.33 0c-11.87,0 -21.52,9.65 -21.52,21.52l0 218.64c30.94,-26.1 66.06,-61.57 97.29,-107.4z"/>
   <path fill="#DA8D8A" d="M430.49 1419.48l0 -218.64c0,-11.87 9.65,-21.52 21.52,-21.52l120.33 0c6.64,0 13.08,0.27 19.32,0.79 -7.86,25.24 -17.38,48.7 -28.04,70.45 12.86,-26.01 23.69,-53.29 32.48,-81.82 -7.63,-0.76 -15.55,-1.13 -23.76,-1.13l-120.33 0c-18.35,0 -33.23,14.88 -33.23,33.23l0 229.44c43.11,-35.2 79.44,-74.6 109,-118.2 -31.23,45.83 -66.35,81.3 -97.29,107.4z"/>
  </g>
 </g>
</svg>
