<?xml version="1.0" encoding="UTF-8"?>
<!DOCTYPE svg PUBLIC "-//W3C//DTD SVG 1.1//EN" "http://www.w3.org/Graphics/SVG/1.1/DTD/svg11.dtd">
<!-- Creator: CorelDRAW 2020 (64-Bit) -->
<svg xmlns="http://www.w3.org/2000/svg" xml:space="preserve" width="2480px" height="3508px" version="1.1" shape-rendering="geometricPrecision" text-rendering="geometricPrecision" image-rendering="optimizeQuality" fill-rule="evenodd" clip-rule="evenodd"
viewBox="0 0 2480 3507.43"
 xmlns:xlink="http://www.w3.org/1999/xlink"
 xmlns:xodm="http://www.corel.com/coreldraw/odm/2003">
 <g id="Capa_x0020_1">
  <metadata id="CorelCorpID_0Corel-Layer"/>
  <g id="_2097729801040">
   <path fill="#2C2A2C" fill-rule="nonzero" d="M942.53 1478.96c-10.04,5.23 -20.51,9.01 -31.42,11.34 -10.92,2.33 -22.06,3.49 -33.4,3.49 -12.08,0 -23.22,-1.88 -33.39,-5.66 -10.19,-3.78 -18.99,-9.21 -26.42,-16.26 -7.42,-7.07 -13.2,-15.62 -17.36,-25.66 -4.14,-10.03 -6.21,-21.24 -6.21,-33.61 0,-12.36 2.07,-23.56 6.21,-33.61 4.16,-10.03 9.94,-18.58 17.36,-25.64 7.43,-7.05 16.23,-12.48 26.42,-16.26 10.17,-3.78 21.31,-5.68 33.39,-5.68 12.37,0 23.76,1.5 34.15,4.48 10.4,2.99 19.54,8.1 27.39,15.39l-24 26.18c-4.66,-4.8 -9.89,-8.44 -15.73,-10.91 -5.8,-2.48 -13.08,-3.71 -21.81,-3.71 -7.28,0 -13.86,1.23 -19.75,3.71 -5.89,2.47 -10.96,5.93 -15.17,10.37 -4.23,4.45 -7.46,9.71 -9.71,15.82 -2.27,6.11 -3.39,12.74 -3.39,19.86 0,7.28 1.12,13.94 3.39,19.97 2.25,6.05 5.48,11.28 9.71,15.72 4.21,4.45 9.28,7.9 15.17,10.36 5.89,2.48 12.47,3.71 19.75,3.71 7.43,0 13.82,-0.82 19.21,-2.5 5.37,-1.68 9.67,-3.39 12.87,-5.12l0 -25.11 -27.72 0 0 -31.43 60.46 0 0 80.76 0 0z"/>
   <polygon fill="#2C2A2C" fill-rule="nonzero" points="1034.86,1335.34 1139.84,1335.34 1139.84,1366.77 1068.9,1366.77 1068.9,1395.59 1135.9,1395.59 1135.9,1427.02 1068.9,1427.02 1068.9,1458.45 1143.76,1458.45 1143.76,1489.86 1034.86,1489.86 "/>
   <polygon fill="#2C2A2C" fill-rule="nonzero" points="1232.15,1335.34 1278.43,1335.34 1344.12,1442.73 1344.55,1442.73 1344.55,1335.34 1378.6,1335.34 1378.6,1489.86 1334.07,1489.86 1266.64,1379.87 1266.2,1379.87 1266.2,1489.86 1232.15,1489.86 "/>
   <polygon fill="#2C2A2C" fill-rule="nonzero" points="1472.46,1335.34 1577.42,1335.34 1577.42,1366.77 1506.5,1366.77 1506.5,1395.59 1573.49,1395.59 1573.49,1427.02 1506.5,1427.02 1506.5,1458.45 1581.36,1458.45 1581.36,1489.86 1472.46,1489.86 "/>
   <path fill="#2C2A2C" fill-rule="nonzero" d="M1703.8 1399.29l20.07 0c3.06,0 6.29,-0.11 9.71,-0.33 3.43,-0.21 6.52,-0.87 9.28,-1.96 2.77,-1.09 5.06,-2.8 6.88,-5.12 1.82,-2.34 2.73,-5.61 2.73,-9.83 0,-3.93 -0.8,-7.06 -2.39,-9.39 -1.62,-2.32 -3.65,-4.1 -6.12,-5.34 -2.47,-1.23 -5.31,-2.07 -8.52,-2.51 -3.2,-0.43 -6.32,-0.66 -9.38,-0.66l-22.26 0 0 35.14 0 0zm-34.06 -63.95l59.81 0c7.86,0 15.31,0.77 22.38,2.3 7.05,1.52 13.23,4.07 18.55,7.64 5.31,3.57 9.52,8.37 12.65,14.4 3.14,6.04 4.69,13.57 4.69,22.58 0,10.92 -2.84,20.2 -8.51,27.84 -5.68,7.64 -13.96,12.48 -24.88,14.51l39.29 65.25 -40.81 0 -32.3 -61.77 -16.81 0 0 61.77 -34.06 0 0 -154.52z"/>
   <path fill="#2C2A2C" fill-rule="nonzero" d="M1936.24 1380.3l-18.77 48.02 37.76 0 -18.99 -48.02zm-13.1 -44.96l28.15 0 67.23 154.52 -38.43 0 -13.3 -32.73 -60.02 0 -12.88 32.73 -37.53 0 66.78 -154.52 0 0z"/>
   <polygon fill="#2C2A2C" fill-rule="nonzero" points="2096.44,1335.34 2130.49,1335.34 2130.49,1458.45 2193.56,1458.45 2193.56,1489.86 2096.44,1489.86 "/>
   <path fill="#2C2A2C" fill-rule="nonzero" d="M817.18 1577.98l115.48 0c22.54,0 40.83,18.29 40.83,40.85l0 503.12c0,22.55 -18.29,40.83 -40.83,40.83l-156.33 0 0 -543.95c0,-22.56 18.29,-40.85 40.85,-40.85l0 0z"/>
   <path fill="#2C2A2C" fill-rule="nonzero" d="M1204.07 2137.31c-49.58,-25.9 -88.43,-62.1 -116.53,-108.6 -28.14,-46.51 -42.2,-99.27 -42.2,-158.32 0,-59.02 14.06,-111.81 42.2,-158.32 28.1,-46.49 66.95,-82.7 116.53,-108.61 49.56,-25.9 105.27,-38.84 167.09,-38.84 56.81,0 107.48,10.03 152.04,30.07 44.55,20.07 81.32,49.02 110.28,86.89l-79.03 70.55c-23.61,21.08 -58.5,21.54 -83.79,2.51 -26.99,-20.31 -56.81,-30.45 -89.49,-30.45 -41.21,0 -74.34,13.24 -99.41,39.67 -25.06,26.46 -37.6,61.98 -37.6,106.53 0,44.56 12.54,80.06 37.6,106.51 25.07,26.46 58.2,39.69 99.41,39.69 32.68,0 62.5,-10.15 89.49,-30.45 25.29,-19.02 60.18,-18.57 83.79,2.5l79.03 70.56c-28.96,37.88 -65.73,66.82 -110.28,86.87 -44.56,20.06 -95.23,30.07 -152.04,30.07 -61.82,0 -117.52,-12.94 -167.09,-38.83z"/>
   <path fill="#2C2A2C" fill-rule="nonzero" d="M1814.76 2136.89c-50.14,-26.17 -89.4,-62.52 -117.8,-109.02 -28.4,-46.5 -42.6,-99.01 -42.6,-157.48 0,-58.48 14.2,-110.98 42.6,-157.48 28.4,-46.49 67.66,-82.84 117.8,-109.03 50.14,-26.17 106.64,-39.26 169.6,-39.26 62.92,0 119.45,13.09 169.58,39.26 50.14,26.19 89.39,62.54 117.8,109.03 28.39,46.5 42.61,99 42.61,157.48 0,58.47 -14.22,110.98 -42.61,157.48 -28.41,46.5 -67.66,82.85 -117.8,109.02 -50.13,26.17 -106.66,39.25 -169.58,39.25 -62.96,0 -119.46,-13.08 -169.6,-39.25z"/>
   <path fill="#2C2A2C" fill-rule="nonzero" d="M185.43 2039.78l0 -400.87c0,-21.76 17.71,-39.46 39.47,-39.46l220.61 0c12.17,0 23.98,0.51 35.43,1.47 -65.31,209.58 -192.92,352.33 -295.51,438.86l0 0zm494 -358.2c-21.72,-33.42 -52.65,-59.04 -92.74,-76.86 -40.09,-17.83 -87.17,-26.73 -141.18,-26.73l-220.61 0c-33.66,0 -60.93,27.28 -60.93,60.92l0 523.89 135.3 0c34.16,0 61.86,-27.71 61.86,-61.87l0 -81.84 84.38 0c54.01,0 101.09,-8.9 141.18,-26.74 40.09,-17.81 71.02,-43.44 92.74,-76.84 21.72,-33.43 32.58,-72.4 32.58,-116.97 0,-44.56 -10.86,-83.53 -32.58,-116.96l0 0z"/>
  </g>
 </g>
</svg>
